<svg xmlns="http://www.w3.org/2000/svg" width="320" height="320" viewBox="0 0 320 320"><defs><style>.a{fill:#f8f8f8;stroke:#f0f0f0;stroke-miterlimit:10;}.b{isolation:isolate;}.c{fill:#16222a;}.c,.d{fill-rule:evenodd;}.d{fill:#6abc96;}.e{stroke:none;}.f{fill:none;}</style></defs><g class="a"><rect class="e" width="320" height="320"/><rect class="f" x="0.5" y="0.5" width="319" height="319"/></g><g class="b" transform="translate(91.5 136)"><path class="c" d="M16.763,12.27,8.31,15.715l.072-.007v3.481l6.358,2.557V18.272l-2.129-.825,4.152-1.7V12.27"/><path class="d" d="M25.453,14.938l-6.378-2.575v3.474l2.006.842-4.318,1.7v3.474l8.6-3.445.073.007V14.931l.019.007"/><path class="c" d="M28.035,23.055,16.85,27.578,5.2,22.866V11.616L16.852,6.9l11.183,4.522Zm5.78-9.245V0l-5.78,2.388V4.522L16.93.036.055,6.936H0v20.81l16.93,6.812,11.1-4.6v2.125l5.78,2.375V13.81ZM53.3,23,50.953,8.6h-.029L48.77,23H53.3ZM49.782,4.49h2.2l4.526,25.45H54.424l-.839-5.163H48.5l-.766,5.163h-2.04Zm19.474,7.028a9.275,9.275,0,0,0-.636-4.006,2.105,2.105,0,0,0-2-1.229h-1.91V28.09h1.78a2.244,2.244,0,0,0,2.342-1.634,13.935,13.935,0,0,0,.434-4.02l-.015-10.917ZM62.576,4.49H66.5q3.426,0,4.367,2.806a14.452,14.452,0,0,1,.549,4.453l.014,10.9q0,3.975-1.128,5.632a4.362,4.362,0,0,1-3.89,1.656H62.576Zm23.263,0h2.068L83.8,29.94H81.559L77.033,4.49H79.1l3.557,20.851h.014l3.167-20.85m8.254,0h6.724V6.168H96.247v9.948h4.295v1.75H96.247V28.233h4.526V29.94h-6.68V4.49m13.473,25.45h2.155V4.49h-2.155ZM115.82,4.49h7.186V6.168H120.62V29.94h-2.14V6.168h-2.66V4.49m12.143,3.9a5.3,5.3,0,0,1,1.222-3.146,4.118,4.118,0,0,1,3.145-1.077,3.587,3.587,0,0,1,2.979,1.07,5.458,5.458,0,0,1,.723,1.157q.549,1.17.564,5.581v1.432h-2.213v-1.59a20.757,20.757,0,0,0-.217-4.064,4.493,4.493,0,0,0-.448-1.07,1.637,1.637,0,0,0-1.5-.665q-2.2,0-2.2,4.092a4.635,4.635,0,0,0,.275,1.945q.274.513.412.8a16.413,16.413,0,0,0,1.844,2l1.388,1.4a10.127,10.127,0,0,1,3.08,7.266q0,4.1-1.179,5.4a4.471,4.471,0,0,1-3.491,1.3q-3.558,0-4.093-4.3a28.324,28.324,0,0,1-.188-3.557V19.731h2.2v2.6a16.488,16.488,0,0,0,.456,4.742,1.8,1.8,0,0,0,1.858,1.3q1.4,0,1.786-.846a5.341,5.341,0,0,0,.419-2.046q.036-1.2.036-2.574a6.813,6.813,0,0,0-2.241-5.017l-1.475-1.4a13.338,13.338,0,0,1-2.589-3.189,5.807,5.807,0,0,1-.65-2.631,21.861,21.861,0,0,1,.1-2.277M62.66,44.5a9.646,9.646,0,0,0,.084,1.587,1.487,1.487,0,0,0,.787,1.068,1.334,1.334,0,0,0,.707.18,1.4,1.4,0,0,0,.724-.18,1.3,1.3,0,0,0,.465-.4,1.43,1.43,0,0,0,.311-.67,10.164,10.164,0,0,0,.08-1.587,10.39,10.39,0,0,0-.08-1.6,1.419,1.419,0,0,1-.66,1.413l1.658,1.658"/></g></svg>