<svg xmlns="http://www.w3.org/2000/svg" xmlns:xlink="http://www.w3.org/1999/xlink" width="25" height="20" viewBox="0 0 25 20"><defs><style>.a{fill:none;}.b{clip-path:url(#a);}.c{clip-path:url(#b);}.d{fill:#252525;}</style><clipPath id="a"><path class="a" d="M24.375-6.25H23.75v-4.223A1.875,1.875,0,0,0,23.2-11.8l-3.9-3.9a1.875,1.875,0,0,0-1.324-.551H16.25v-1.875A1.875,1.875,0,0,0,14.375-20H1.875A1.875,1.875,0,0,0,0-18.125v12.5A1.875,1.875,0,0,0,1.875-3.75H2.5A3.751,3.751,0,0,0,6.25,0,3.751,3.751,0,0,0,10-3.75h5A3.751,3.751,0,0,0,18.75,0,3.751,3.751,0,0,0,22.5-3.75h1.875A.627.627,0,0,0,25-4.375v-1.25A.627.627,0,0,0,24.375-6.25ZM6.25-1.875A1.875,1.875,0,0,1,4.375-3.75,1.875,1.875,0,0,1,6.25-5.625,1.875,1.875,0,0,1,8.125-3.75,1.875,1.875,0,0,1,6.25-1.875Zm12.5,0A1.875,1.875,0,0,1,16.875-3.75,1.875,1.875,0,0,1,18.75-5.625,1.875,1.875,0,0,1,20.625-3.75,1.875,1.875,0,0,1,18.75-1.875ZM21.875-10H16.25v-4.375h1.723l3.9,3.9Z"/></clipPath><clipPath id="b"><path class="a" d="M-871,5492H1049V-827H-871Z"/></clipPath></defs><g transform="translate(0 20)"><g class="b"><g class="c"><path class="d" d="M-5-25H30V5H-5Z"/></g></g></g></svg>